HIERARCHY
ROOT Hips
{
	OFFSET -0.001795 -0.223333 0.028219
	CHANNELS 6 Xposition Yposition Zposition Zrotation Yrotation Xrotation 
	JOINT LeftUpLeg
	{
		OFFSET 0.069520 -0.091406 -0.006815
		CHANNELS 3 Zrotation Yrotation Xrotation
		JOINT LeftLeg
		{
			OFFSET 0.034277 -0.375199 -0.004496
			CHANNELS 3 Zrotation Yrotation Xrotation
			JOINT LeftFoot
			{
				OFFSET -0.013596 -0.397961 -0.043693
				CHANNELS 3 Zrotation Yrotation Xrotation
				JOINT LeftToe
				{
					OFFSET 0.026358 -0.055791 0.119288
					CHANNELS 3 Zrotation Yrotation Xrotation
					End Site
					{
						OFFSET 0.000000 0.000000 0.000000
					}
				}
			}
		}
	}
	JOINT RightUpLeg
	{
		OFFSET -0.067670 -0.090522 -0.004320
		CHANNELS 3 Zrotation Yrotation Xrotation
		JOINT RightLeg
		{
			OFFSET -0.038290 -0.382569 -0.008850
			CHANNELS 3 Zrotation Yrotation Xrotation
			JOINT RightFoot
			{
				OFFSET 0.015774 -0.398415 -0.042312
				CHANNELS 3 Zrotation Yrotation Xrotation
				JOINT RightToe
				{
					OFFSET -0.025372 -0.048144 0.123348
					CHANNELS 3 Zrotation Yrotation Xrotation
					End Site
					{
						OFFSET 0.000000 0.000000 0.000000
					}
				}
			}
		}
	}
	JOINT Spine
	{
		OFFSET -0.002533 0.108963 -0.026696
		CHANNELS 3 Zrotation Yrotation Xrotation
		JOINT Spine1
		{
			OFFSET 0.005487 0.135180 0.001092
			CHANNELS 3 Zrotation Yrotation Xrotation
			JOINT Spine2
			{
				OFFSET 0.001457 0.052922 0.025425
				CHANNELS 3 Zrotation Yrotation Xrotation
				JOINT Neck
				{
					OFFSET -0.002778 0.213870 -0.042857
					CHANNELS 3 Zrotation Yrotation Xrotation
					JOINT Head
					{
						OFFSET 0.005152 0.064970 0.051349
						CHANNELS 3 Zrotation Yrotation Xrotation
						End Site
						{
							OFFSET 0.000000 0.000000 0.000000
						}
					}
				}
				JOINT LeftShoulder
				{
					OFFSET 0.078845 0.121749 -0.034090
					CHANNELS 3 Zrotation Yrotation Xrotation
					JOINT LeftArm
					{
						OFFSET 0.090977 0.030469 -0.008868
						CHANNELS 3 Zrotation Yrotation Xrotation
						JOINT LeftForeArm
						{
							OFFSET 0.259612 -0.012772 -0.027456
							CHANNELS 3 Zrotation Yrotation Xrotation
							JOINT LeftHand
							{
								OFFSET 0.249234 0.008986 -0.001171
								CHANNELS 3 Zrotation Yrotation Xrotation
								End Site
								{
									OFFSET 0.000000 0.000000 0.000000
								}
							}
						}
					}
				}
				JOINT RightShoulder
				{
					OFFSET -0.081759 0.118833 -0.038615
					CHANNELS 3 Zrotation Yrotation Xrotation
					JOINT RightArm
					{
						OFFSET -0.096012 0.032551 -0.009143
						CHANNELS 3 Zrotation Yrotation Xrotation
						JOINT RightForeArm
						{
							OFFSET -0.253742 -0.013329 -0.021401
							CHANNELS 3 Zrotation Yrotation Xrotation
							JOINT RightHand
							{
								OFFSET -0.255298 0.007772 -0.005559
								CHANNELS 3 Zrotation Yrotation Xrotation
								End Site
								{
									OFFSET 0.000000 0.000000 0.000000
								}
							}
						}
					}
				}
			}
		}
	}
}
MOTION
Frames: 11
Frame Time: 0.050000
0.089741 0.926628 -0.171019 -1.188771 73.355765 3.728773 6.443712 -1.343171 -2.865162 -3.434467 -0.727585 -2.146410 -5.707305 -10.768884 1.691616 0.000000 0.000000 0.000000 -1.654753 -0.448731 -4.182353 -0.472173 -0.263692 -0.650702 8.893180 13.568356 -0.189311 0.000000 0.000000 0.000000 5.388255 -0.279040 -5.976704 -1.089852 -0.702691 0.279899 -5.396109 3.110183 3.768955 5.860638 2.774041 -18.678208 0.000000 0.000000 0.000000 -9.669238 -18.094473 -1.583440 -3.074927 -36.241994 -2.779168 39.442460 -30.721464 -14.955481 0.000000 0.000000 0.000000 14.826466 -10.287479 0.313826 38.953082 23.222947 2.394918 -119.906033 70.415172 -69.412638 0.000000 0.000000 0.000000 
0.088327 0.926558 -0.170786 -0.943096 74.103260 3.900607 6.613560 -1.392299 -3.002814 -3.713546 -0.783610 -2.095751 -6.317833 -11.706716 1.877707 0.000000 0.000000 0.000000 -1.386858 -0.412337 -4.179573 -0.979424 -0.153721 -0.546629 9.180216 13.808972 -0.309235 0.000000 0.000000 0.000000 5.067623 -0.276068 -6.020542 -0.887209 -0.849155 0.409140 -5.698594 2.705313 3.829758 6.318598 2.444149 -18.295515 0.000000 0.000000 0.000000 -9.483278 -17.977751 -1.552898 -3.694678 -38.416374 -2.945742 40.930768 -32.427271 -16.346430 0.000000 0.000000 0.000000 14.883695 -10.013815 0.544753 39.883833 22.879823 2.452080 -122.434688 69.931272 -71.201158 0.000000 0.000000 0.000000 
0.086277 0.926761 -0.171140 -0.455620 74.673214 4.349037 6.485204 -1.374404 -3.071645 -3.768507 -0.820238 -2.245541 -7.162022 -12.533249 2.420233 0.000000 0.000000 0.000000 -1.565248 -0.468878 -4.222095 -0.780302 -0.211955 -0.534101 9.090082 13.467357 -0.673831 0.000000 0.000000 0.000000 4.873490 -0.268455 -5.813226 -0.682000 -0.930227 0.328267 -6.149029 2.831228 3.666919 6.806637 2.076995 -17.786733 0.000000 0.000000 0.000000 -9.056694 -18.750478 -1.207558 -5.926046 -40.489763 -2.598752 43.104143 -36.009517 -19.281886 0.000000 0.000000 0.000000 15.515638 -10.418917 0.636952 41.197356 23.233056 2.737802 -127.783562 69.667812 -75.753282 0.000000 0.000000 0.000000 
0.083543 0.926955 -0.172023 -0.626272 74.871686 4.288531 6.525167 -1.376664 -3.582640 -4.062862 -0.866592 -2.089805 -7.262049 -13.279816 2.124508 0.000000 0.000000 0.000000 -1.614646 -0.475954 -4.861052 -0.798314 -0.233462 -0.041966 9.375258 13.804982 -1.003193 0.000000 0.000000 0.000000 5.000305 -0.273665 -5.781924 -0.848461 -1.083092 0.977026 -6.278738 2.903754 3.476636 7.096036 1.740395 -17.210020 0.000000 0.000000 0.000000 -9.093013 -18.689506 -1.241703 -8.915263 -42.600370 -1.856274 46.129998 -40.959200 -23.508874 0.000000 0.000000 0.000000 15.149070 -10.034746 0.757894 43.480606 23.676325 3.569917 -133.304553 68.798139 -80.148117 0.000000 0.000000 0.000000 
0.080566 0.926724 -0.173159 -0.459357 75.173424 4.489005 6.274930 -1.320426 -4.074652 -4.220227 -0.878239 -1.653915 -7.465102 -13.865374 2.066086 0.000000 0.000000 0.000000 -1.650017 -0.496088 -5.243091 -0.879457 -0.245289 0.413782 9.430133 13.793920 -0.895344 0.000000 0.000000 0.000000 5.157009 -0.265294 -5.330067 -0.862978 -1.158280 1.175088 -6.682719 3.172285 3.432173 7.501185 1.625049 -17.485016 0.000000 0.000000 0.000000 -10.138403 -19.450182 -1.659353 -13.015241 -42.972896 -0.259925 50.634324 -47.445040 -29.971875 0.000000 0.000000 0.000000 15.627295 -9.660346 1.300108 45.063459 24.347185 4.151558 -138.548507 67.555760 -84.068307 0.000000 0.000000 0.000000 
0.078143 0.926445 -0.174096 -0.066503 75.559719 4.882117 6.301633 -1.331755 -4.124346 -4.617084 -0.974180 -2.023168 -7.655815 -13.786365 2.354777 0.000000 0.000000 0.000000 -1.703080 -0.522497 -5.424972 -0.768602 -0.297114 0.647016 9.660446 14.012689 -1.432978 0.000000 0.000000 0.000000 5.450520 -0.282391 -5.263178 -1.132435 -1.230249 1.641263 -7.014710 3.399921 3.435202 7.976040 1.277989 -17.144150 0.000000 0.000000 0.000000 -11.485157 -20.141928 -2.188315 -16.643335 -41.664364 1.355791 55.134229 -53.446268 -36.837644 0.000000 0.000000 0.000000 15.840223 -9.597537 1.469496 45.988512 24.865142 4.615703 -142.492446 67.024085 -87.787736 0.000000 0.000000 0.000000 
0.076730 0.926091 -0.174597 0.290713 75.975980 5.293675 6.259005 -1.328663 -4.122965 -4.996994 -1.097912 -2.634648 -7.992768 -13.262295 3.080841 0.000000 0.000000 0.000000 -1.999912 -0.606900 -5.351452 -0.539418 -0.342679 0.335752 9.799319 14.135281 -1.360720 0.000000 0.000000 0.000000 5.654281 -0.300635 -5.323844 -1.282625 -1.391574 2.231017 -7.329225 3.689283 3.214850 8.108540 1.180027 -17.066782 0.000000 0.000000 0.000000 -13.181687 -19.885460 -3.238243 -19.603406 -39.453855 2.738452 60.075173 -60.236147 -45.105650 0.000000 0.000000 0.000000 16.143992 -9.488955 1.700601 46.342330 24.404667 4.493565 -146.044153 66.694030 -91.718022 0.000000 0.000000 0.000000 
0.076063 0.925711 -0.174669 0.563494 76.108899 5.604140 6.259760 -1.332611 -4.003781 -4.966403 -1.118647 -2.868026 -7.977493 -12.925449 3.261635 0.000000 0.000000 0.000000 -2.124240 -0.641703 -4.860403 -0.310671 -0.357056 -0.480337 10.240314 14.826046 -1.357267 0.000000 0.000000 0.000000 6.036716 -0.335006 -5.503783 -1.747735 -1.306894 2.459537 -7.480162 4.422668 3.412358 8.466399 0.877260 -16.577095 0.000000 0.000000 0.000000 -14.369838 -19.913361 -4.091594 -21.927792 -36.610885 3.616084 66.881681 -65.511693 -54.906518 0.000000 0.000000 0.000000 16.210375 -9.802520 1.630288 46.491156 23.976090 4.384897 -148.066665 67.382761 -94.691496 0.000000 0.000000 0.000000 
0.075649 0.925435 -0.174512 0.819797 76.537770 5.802607 6.334470 -1.360663 -3.736642 -4.986631 -1.184703 -3.401247 -7.933168 -12.017694 3.753220 0.000000 0.000000 0.000000 -2.148768 -0.660222 -4.456104 -0.332533 -0.334880 -0.930268 10.192481 14.676548 -1.238333 0.000000 0.000000 0.000000 6.248384 -0.357596 -5.673783 -2.095701 -1.274562 2.678456 -7.451145 4.644591 3.824213 8.283707 1.156217 -17.000369 0.000000 0.000000 0.000000 -15.429220 -19.156441 -5.068908 -23.781355 -34.122765 4.162136 73.134222 -69.310542 -63.549288 0.000000 0.000000 0.000000 15.879414 -9.811431 1.530159 46.329191 23.308744 4.172501 -146.441671 67.925231 -93.304584 0.000000 0.000000 0.000000 
0.075000 0.925321 -0.174179 1.507232 76.932600 6.365691 6.172537 -1.345617 -3.352262 -5.023567 -1.257883 -3.866822 -7.869234 -11.786781 3.799713 0.000000 0.000000 0.000000 -2.221994 -0.701425 -3.897845 -0.264563 -0.336538 -1.513454 10.116252 14.438012 -1.270952 0.000000 0.000000 0.000000 6.307670 -0.374130 -5.791112 -2.163173 -1.326748 2.811196 -7.854815 5.203939 3.972223 8.334132 1.223826 -17.139387 0.000000 0.000000 0.000000 -15.684869 -18.939621 -5.564851 -24.487337 -32.369594 4.278766 75.366677 -70.077654 -66.473325 0.000000 0.000000 0.000000 16.059340 -9.997593 1.619256 45.559645 22.944346 3.812144 -145.044692 68.877455 -92.674941 0.000000 0.000000 0.000000 
0.073979 0.925204 -0.173877 2.053632 77.144281 6.864892 6.167942 -1.355779 -3.219407 -5.052928 -1.264542 -3.805229 -7.886387 -12.029031 3.664256 0.000000 0.000000 0.000000 -2.117614 -0.683957 -3.694662 -0.549233 -0.258938 -1.760430 10.098612 14.349977 -1.237219 0.000000 0.000000 0.000000 6.302329 -0.376923 -5.818764 -2.277349 -1.375819 3.039208 -8.013242 5.641712 3.814463 8.109808 1.458041 -17.420944 0.000000 0.000000 0.000000 -15.841739 -18.676983 -5.943515 -25.374918 -31.863823 4.497373 74.391744 -69.276307 -65.087225 0.000000 0.000000 0.000000 15.678744 -9.779375 1.720369 45.532245 22.913591 3.884227 -142.922043 69.819167 -91.081916 0.000000 0.000000 0.000000 
